<svg width="130" height="125" viewBox="0 0 130 125" fill="none" xmlns="http://www.w3.org/2000/svg">
<rect width="130" height="125" rx="20" fill="#FAF8E3"/>
<path d="M81.125 66.5834C76.825 66.5834 70.1242 67.8017 65 70.1667C59.8758 67.7659 53.175 66.5834 48.875 66.5834C41.0992 66.5834 25.5833 70.4534 25.5833 78.2292V88.0834H104.417V78.2292C104.417 70.4534 88.9008 66.5834 81.125 66.5834ZM66.7917 82.7084H30.9583V78.2292C30.9583 76.2942 40.1317 71.9584 48.875 71.9584C57.6183 71.9584 66.7917 76.2942 66.7917 78.2292V82.7084ZM99.0417 82.7084H72.1667V78.2292C72.1667 76.5809 71.45 75.1475 70.3033 73.8575C73.4567 72.7825 77.3267 71.9584 81.125 71.9584C89.8683 71.9584 99.0417 76.2942 99.0417 78.2292V82.7084ZM48.875 63C55.7908 63 61.4167 57.3742 61.4167 50.4584C61.4167 43.5425 55.7908 37.9167 48.875 37.9167C41.9592 37.9167 36.3333 43.5425 36.3333 50.4584C36.3333 57.3742 41.9592 63 48.875 63ZM48.875 43.2917C52.8167 43.2917 56.0417 46.5167 56.0417 50.4584C56.0417 54.4 52.8167 57.625 48.875 57.625C44.9333 57.625 41.7083 54.4 41.7083 50.4584C41.7083 46.5167 44.9333 43.2917 48.875 43.2917ZM81.125 63C88.0408 63 93.6667 57.3742 93.6667 50.4584C93.6667 43.5425 88.0408 37.9167 81.125 37.9167C74.2092 37.9167 68.5833 43.5425 68.5833 50.4584C68.5833 57.3742 74.2092 63 81.125 63ZM81.125 43.2917C85.0667 43.2917 88.2917 46.5167 88.2917 50.4584C88.2917 54.4 85.0667 57.625 81.125 57.625C77.1833 57.625 73.9583 54.4 73.9583 50.4584C73.9583 46.5167 77.1833 43.2917 81.125 43.2917Z" fill="#F5D262"/>
</svg>
