<svg width="195" height="39" viewBox="0 0 195 39" fill="none" xmlns="http://www.w3.org/2000/svg">
<path d="M19.4999 28.4693L26.2437 32.5481C27.4787 33.2956 28.9899 32.1906 28.6649 30.7931L26.8774 23.1231L32.8412 17.9556C33.9299 17.0131 33.3449 15.2256 31.9149 15.1118L24.0662 14.4456L20.9949 7.19806C20.4424 5.88181 18.5574 5.88181 18.0049 7.19806L14.9337 14.4293L7.0849 15.0956C5.6549 15.2093 5.0699 16.9968 6.15865 17.9393L12.1224 23.1068L10.3349 30.7768C10.0099 32.1743 11.5212 33.2793 12.7562 32.5318L19.4999 28.4693Z" fill="#F2C94C"/>
<path d="M136.5 28.4693L143.244 32.5481C144.479 33.2956 145.99 32.1906 145.665 30.7931L143.877 23.1231L149.841 17.9556C150.93 17.0131 150.345 15.2256 148.915 15.1118L141.066 14.4456L137.995 7.19806C137.442 5.88181 135.557 5.88181 135.005 7.19806L131.934 14.4293L124.085 15.0956C122.655 15.2093 122.07 16.9968 123.159 17.9393L129.122 23.1068L127.335 30.7768C127.01 32.1743 128.521 33.2793 129.756 32.5318L136.5 28.4693Z" fill="#F2C94C"/>
<path d="M97.4999 28.4693L104.244 32.5481C105.479 33.2956 106.99 32.1906 106.665 30.7931L104.877 23.1231L110.841 17.9556C111.93 17.0131 111.345 15.2256 109.915 15.1118L102.066 14.4456L98.9949 7.19806C98.4424 5.88181 96.5574 5.88181 96.0049 7.19806L92.9337 14.4293L85.0849 15.0956C83.6549 15.2093 83.0699 16.9968 84.1587 17.9393L90.1224 23.1068L88.3349 30.7768C88.0099 32.1743 89.5212 33.2793 90.7562 32.5318L97.4999 28.4693Z" fill="#F2C94C"/>
<path d="M58.4999 28.4693L65.2437 32.5481C66.4787 33.2956 67.9899 32.1906 67.6649 30.7931L65.8774 23.1231L71.8412 17.9556C72.9299 17.0131 72.3449 15.2256 70.9149 15.1118L63.0662 14.4456L59.9949 7.19806C59.4424 5.88181 57.5574 5.88181 57.0049 7.19806L53.9337 14.4293L46.0849 15.0956C44.6549 15.2093 44.0699 16.9968 45.1587 17.9393L51.1224 23.1068L49.3349 30.7768C49.0099 32.1743 50.5212 33.2793 51.7562 32.5318L58.4999 28.4693Z" fill="#F2C94C"/>
<path d="M175.5 28.4693L182.244 32.5481C183.479 33.2956 184.99 32.1906 184.665 30.7931L182.877 23.1231L188.841 17.9556C189.93 17.0131 189.345 15.2256 187.915 15.1118L180.066 14.4456L176.995 7.19806C176.442 5.88181 174.557 5.88181 174.005 7.19806L170.934 14.4293L163.085 15.0956C161.655 15.2093 161.07 16.9968 162.159 17.9393L168.122 23.1068L166.335 30.7768C166.01 32.1743 167.521 33.2793 168.756 32.5318L175.5 28.4693Z" fill="#F2C94C"/>
</svg>
